<?xml version="1.0" standalone="no"?>
<!DOCTYPE svg PUBLIC "-//W3C//DTD SVG 20010904//EN"
 "http://www.w3.org/TR/2001/REC-SVG-20010904/DTD/svg10.dtd">
<svg version="1.0" xmlns="http://www.w3.org/2000/svg"
 width="1200.000000pt" height="630.000000pt" viewBox="0 0 1200.000000 630.000000"
 preserveAspectRatio="xMidYMid meet">

<g transform="translate(0.000000,630.000000) scale(0.100000,-0.100000)"
fill="#000000" stroke="none">
<path d="M6765 6270 c-16 -23 -25 -28 -47 -25 -24 5 -58 -15 -58 -33 0 -4 -32
-5 -71 -4 -52 3 -74 0 -80 -10 -7 -10 -9 -10 -9 0 0 16 -144 9 -315 -14 -60
-9 -198 -19 -305 -24 -107 -5 -238 -16 -290 -24 -52 -9 -144 -16 -205 -16
-102 0 -158 -9 -316 -50 -31 -9 -87 -11 -224 -10 -22 0 -54 3 -72 6 -21 4 -60
-3 -116 -20 -75 -23 -84 -29 -80 -47 3 -11 11 -18 19 -15 13 5 54 -25 54 -40
0 -11 -82 -64 -98 -64 -6 0 -9 -7 -5 -16 3 -9 0 -20 -8 -25 -21 -13 -32 -11
-26 5 5 12 1 12 -23 0 -15 -8 -31 -21 -34 -29 -6 -17 -36 -21 -36 -5 0 6 -5
10 -11 10 -5 0 -7 -6 -3 -12 4 -7 -4 -3 -17 9 -24 22 -59 18 -45 -6 7 -11 -12
-7 -51 11 -25 12 -97 3 -133 -17 l-25 -13 40 -7 c57 -9 67 -14 60 -25 -3 -5
-1 -10 4 -10 6 0 11 -5 11 -10 0 -7 -6 -7 -20 0 -15 8 -27 7 -49 -5 -37 -19
-41 -19 -41 0 0 8 -4 15 -10 15 -5 0 -10 -5 -10 -10 0 -6 -11 -16 -25 -22 -14
-6 -25 -17 -25 -25 0 -19 -31 -50 -55 -55 -11 -2 -20 -9 -20 -16 0 -6 -4 -12
-10 -11 -5 0 -13 -10 -17 -22 -6 -16 -12 -19 -20 -11 -6 6 -17 7 -27 3 -9 -5
-32 -13 -51 -19 l-35 -12 25 20 c25 19 25 20 3 20 -22 0 -48 -31 -37 -43 4 -3
-4 -20 -16 -37 -12 -17 -24 -29 -27 -26 -3 2 2 15 11 28 27 39 18 42 -19 7
-19 -19 -35 -40 -35 -47 0 -7 -5 -10 -10 -7 -6 4 -7 11 -4 17 5 7 2 8 -6 3
-10 -6 -8 -12 8 -25 27 -22 18 -31 -19 -18 -48 16 -106 -9 -100 -44 0 -5 -8
-8 -19 -8 -11 0 -20 -7 -20 -15 0 -8 -6 -15 -14 -15 -20 0 -40 -26 -26 -35 6
-4 -3 -20 -25 -42 -19 -19 -32 -39 -29 -44 3 -5 0 -9 -5 -9 -16 0 -13 -52 5
-75 12 -17 16 -18 24 -5 5 8 12 11 16 7 4 -3 1 -13 -6 -22 -7 -9 -10 -27 -7
-45 4 -18 1 -34 -7 -43 -10 -9 -11 -19 -5 -28 8 -12 12 -11 25 6 14 19 16 19
25 2 6 -9 14 -15 20 -12 5 3 6 0 4 -8 -3 -7 4 -22 15 -32 20 -18 20 -19 1 -39
-19 -22 -34 -76 -20 -76 4 0 14 7 23 15 20 20 23 19 31 -12 3 -16 13 -35 20
-43 8 -9 14 -27 13 -40 -2 -39 -38 -143 -54 -154 -7 -6 -15 -31 -17 -56 -3
-36 1 -51 19 -72 21 -26 23 -68 3 -68 -5 0 -6 -6 -3 -14 3 -8 1 -17 -5 -21 -6
-3 -11 -2 -11 2 0 5 -9 9 -19 10 -15 1 -24 -10 -36 -42 -20 -50 -13 -69 21
-61 25 7 29 2 48 -61 7 -20 5 -21 -23 -10 -44 16 -56 1 -41 -52 6 -23 19 -50
28 -59 24 -25 26 -50 6 -80 -9 -14 -18 -35 -20 -47 -9 -70 -34 -159 -48 -167
-8 -4 -30 -35 -48 -68 -19 -35 -38 -58 -45 -56 -7 3 -16 0 -20 -7 -5 -7 -21
-19 -37 -27 -47 -24 -137 -116 -130 -133 3 -8 28 -23 56 -33 60 -22 74 -42 26
-37 -20 2 -12 -3 19 -11 29 -7 76 -12 105 -10 52 3 52 3 18 -8 -19 -7 -37 -14
-40 -17 -12 -14 -51 -31 -69 -31 -11 0 -22 -4 -26 -9 -3 -6 37 -9 102 -8 60 1
146 -3 193 -9 85 -12 84 -12 -50 -7 -125 5 -139 4 -188 -17 -29 -13 -58 -30
-65 -39 -7 -9 -23 -22 -36 -29 -28 -16 -95 -27 -71 -12 11 7 4 10 -27 10 -23
0 -45 -4 -48 -10 -3 -5 -30 -10 -58 -10 -29 -1 -72 -5 -97 -10 -25 -6 -65 -14
-90 -19 -58 -11 -120 -38 -120 -52 0 -8 13 -9 38 -5 72 13 97 15 87 8 -5 -4
-15 -16 -21 -26 -7 -13 -34 -26 -80 -37 -38 -10 -94 -25 -124 -33 -30 -9 -104
-21 -165 -27 -97 -9 -135 -17 -235 -45 -37 -11 -70 -34 -70 -50 0 -8 -8 -15
-17 -15 -37 -3 -43 -4 -43 -11 0 -5 0 -12 0 -18 0 -5 7 -10 16 -10 8 0 13 4
10 9 -3 4 6 6 19 3 14 -2 25 -7 25 -11 0 -13 -24 -31 -42 -31 -10 0 -44 -28
-76 -62 -31 -34 -79 -83 -106 -110 -51 -49 -51 -54 8 -60 42 -4 43 -24 2 -31
-53 -9 -105 -37 -122 -66 l-15 -26 5 25 c3 14 6 31 6 39 0 8 6 11 15 7 8 -3
15 -2 15 3 0 4 10 13 23 19 30 14 6 15 -30 0 -15 -6 -32 -12 -38 -12 -13 -1
-55 -38 -55 -49 0 -4 6 -5 13 -2 6 4 5 1 -4 -7 -9 -7 -20 -24 -24 -38 -4 -14
-13 -32 -20 -40 -21 -26 -34 -125 -28 -212 5 -74 2 -92 -22 -163 -27 -76 -36
-155 -22 -200 3 -11 6 -23 6 -27 1 -5 14 -8 30 -8 22 0 31 -6 36 -23 4 -12 16
-31 27 -43 26 -29 36 -94 15 -94 -9 0 -23 -10 -31 -21 -13 -19 -13 -24 0 -36
8 -8 14 -23 14 -34 0 -22 8 -23 46 -9 43 17 49 0 30 -72 -10 -35 -26 -85 -36
-113 -9 -27 -27 -90 -39 -139 -24 -96 -23 -176 4 -266 7 -25 18 -83 24 -130
20 -141 22 -150 31 -150 6 0 10 -5 10 -11 0 -6 -7 -9 -15 -5 -10 4 -15 -1 -15
-15 0 -11 -10 -33 -21 -48 -12 -16 -19 -33 -16 -38 8 -13 -20 -46 -35 -41 -12
4 -58 -53 -58 -72 0 -6 -6 -10 -14 -10 -19 0 -67 -26 -77 -42 -4 -7 -10 -10
-13 -7 -3 3 6 17 20 33 26 27 26 27 5 33 -21 5 -21 6 4 39 29 38 44 94 26 94
-7 0 -23 -13 -36 -28 -25 -30 -65 -40 -65 -16 0 8 -4 14 -9 14 -5 0 -8 8 -6
18 2 9 4 20 4 24 1 4 12 20 26 35 40 44 59 66 75 87 14 18 13 19 -3 13 -11 -4
-20 -1 -23 8 -9 22 -41 18 -47 -5 -3 -11 -11 -19 -17 -18 -29 7 -67 -115 -38
-124 6 -2 8 -10 4 -16 -9 -14 -69 -16 -94 -2 -9 5 -75 13 -147 19 -145 10
-180 3 -204 -42 -16 -30 -109 -97 -135 -97 -11 0 -16 -5 -13 -14 4 -10 0 -12
-14 -9 -13 4 -19 0 -19 -13 0 -9 3 -15 6 -11 3 3 24 -5 45 -19 22 -14 44 -22
49 -19 6 3 19 0 31 -8 15 -11 17 -16 7 -20 -22 -9 8 -24 97 -48 71 -19 135
-25 304 -28 14 -1 34 -9 45 -19 12 -10 38 -29 59 -41 20 -13 37 -29 37 -37 0
-7 10 -20 23 -29 29 -19 127 -48 135 -41 3 3 0 6 -6 6 -33 0 -124 44 -134 65
-6 13 -20 28 -32 33 -17 9 -15 10 14 5 19 -3 45 -14 56 -25 19 -17 22 -17 28
-3 3 9 0 18 -8 21 -12 5 -12 9 2 23 16 15 18 15 40 -6 24 -24 29 -38 10 -27
-7 4 -10 4 -6 -1 4 -4 3 -14 -3 -21 -15 -18 16 -31 35 -15 10 8 16 8 26 -4 7
-8 16 -12 21 -9 5 3 9 2 8 -3 -1 -4 0 -11 1 -15 1 -5 3 -14 4 -20 0 -7 20 -19
44 -27 29 -9 42 -18 38 -27 -8 -20 68 -27 228 -21 123 4 151 9 221 35 44 16
109 35 145 42 36 7 70 18 75 25 6 6 50 15 101 18 106 8 127 14 119 34 -4 12
-1 13 12 7 29 -14 325 -8 478 10 189 22 255 35 255 52 0 25 68 44 159 44 127
0 337 28 401 53 51 20 73 22 275 22 181 0 232 4 285 19 36 9 121 22 190 27
284 21 346 27 365 32 22 5 134 11 178 8 43 -2 22 -21 -23 -21 -46 0 -54 -10
-39 -44 10 -21 9 -29 -3 -43 -28 -33 -29 -53 -5 -77 19 -19 39 -25 98 -31 41
-3 129 -13 196 -21 68 -8 236 -19 375 -23 220 -8 266 -13 353 -35 58 -15 185
-34 300 -46 168 -18 233 -20 407 -14 181 6 211 5 249 -10 71 -29 136 -38 599
-87 107 -11 230 -27 274 -35 43 -7 109 -14 146 -14 66 0 68 1 75 28 l7 27 9
-26 9 -25 276 -3 c202 -2 279 1 290 9 9 9 14 9 14 1 0 -7 231 -11 821 -11 641
0 820 2 817 12 -6 17 -59 46 -85 47 -19 1 -23 7 -23 31 0 42 40 62 70 35 19
-17 21 -17 47 9 22 22 29 25 38 14 11 -14 81 -68 88 -68 8 0 -9 64 -24 88 -8
12 -24 22 -36 22 -12 0 -25 5 -28 10 -11 18 -27 11 -20 -9 4 -15 1 -19 -18
-17 -17 1 -23 6 -19 19 2 10 -1 17 -9 17 -8 0 -34 14 -59 30 -25 16 -48 30
-52 30 -5 0 -8 -16 -8 -35 0 -19 4 -35 9 -35 12 0 34 -57 26 -69 -3 -6 -13
-11 -21 -11 -8 0 -14 -9 -14 -20 0 -28 -16 -25 -37 7 -11 17 -20 57 -24 109
-5 67 -11 88 -33 116 -28 37 -25 54 6 37 25 -14 38 -3 38 32 0 22 -5 29 -19
29 -16 0 -18 6 -13 47 2 27 9 57 15 67 7 15 5 23 -9 34 -16 12 -16 14 -2 9 14
-5 16 -1 13 25 -2 16 -6 33 -9 35 -12 12 -36 -21 -36 -49 0 -26 -3 -29 -22
-22 -29 9 -40 24 -33 49 2 11 5 36 5 56 0 25 9 45 30 69 17 18 30 37 30 40 0
4 -13 5 -30 2 -36 -5 -39 5 -5 18 28 11 32 25 10 34 -9 3 -15 17 -14 33 0 25
1 26 9 8 7 -16 9 -17 9 -3 1 9 5 18 10 20 10 4 -10 127 -29 180 -8 20 -16 35
-20 33 -3 -2 -6 15 -6 38 0 23 -2 96 -3 162 -1 66 2 135 8 154 6 19 8 37 6 42
-3 4 4 29 16 56 16 39 19 59 14 105 -4 32 -11 56 -16 52 -8 -4 -1 55 7 65 2 2
0 9 -6 15 -5 7 -5 18 0 25 15 25 66 -28 107 -111 21 -43 44 -80 51 -83 9 -3
12 1 8 13 -3 9 -7 33 -10 52 -7 54 -52 144 -83 163 -7 4 -13 24 -13 43 0 45
-23 90 -50 97 -11 3 -20 13 -20 24 0 11 -7 28 -15 39 -13 18 -14 17 -15 -19 0
-22 -4 -36 -10 -32 -17 11 -42 75 -37 95 3 11 -3 29 -14 41 -10 12 -19 19 -19
16 0 -14 -38 32 -42 49 -1 9 -18 22 -36 28 -19 7 -38 19 -43 27 -4 9 -29 24
-55 34 -33 12 -42 20 -33 26 14 9 13 9 -33 13 -7 1 -20 8 -28 17 -8 9 -35 27
-60 40 -25 13 -51 30 -58 37 -8 6 -39 24 -70 38 -31 14 -64 31 -72 38 -8 7
-34 18 -58 25 -51 14 -286 132 -257 129 65 -8 47 43 -28 79 -29 13 -65 33 -82
43 -16 10 -52 26 -79 35 -35 13 -45 20 -35 27 11 7 9 9 -6 7 -36 -3 -44 1 -39
16 4 10 0 15 -14 15 -12 0 -27 9 -34 19 -11 16 -23 19 -59 16 -30 -2 -70 5
-120 22 -41 14 -83 27 -94 29 -11 2 -21 8 -23 14 -2 5 -15 10 -28 10 -14 0
-35 5 -46 11 -20 11 -21 9 -15 -21 6 -27 4 -31 -9 -26 -9 3 -42 6 -75 6 -48 0
-57 3 -53 15 7 17 -22 21 -45 6 -16 -10 -41 -4 -41 10 0 5 17 9 38 9 69 0 109
39 83 79 -8 12 -15 10 -43 -11 l-35 -26 -11 32 c-12 32 -108 133 -188 198 -23
18 -57 55 -75 81 -19 27 -42 56 -51 65 -19 18 -24 47 -9 56 13 8 19 54 9 64
-13 13 8 62 27 62 21 0 19 18 -2 23 -17 4 -17 4 0 10 9 4 24 9 32 12 21 6 19
27 -2 23 -13 -2 -19 5 -21 24 -3 23 -6 26 -21 19 -26 -14 -22 27 6 58 15 16
23 43 28 85 4 34 13 102 22 151 23 139 25 183 15 285 -10 96 -4 129 22 112 6
-4 26 -12 44 -18 l32 -12 0 50 c0 62 -27 173 -78 318 -3 8 -6 29 -8 45 -10
112 -34 187 -52 158 -5 -7 -11 -3 -19 13 -6 13 -8 24 -3 24 4 0 8 32 9 70 1
43 -2 70 -9 70 -5 0 -10 5 -10 10 0 6 6 9 13 8 7 -2 12 8 12 27 1 17 4 38 9
48 4 9 6 24 2 32 -3 8 -1 15 4 15 23 0 19 134 -7 200 -3 8 -7 33 -9 55 -3 21
-9 42 -15 46 -7 4 -8 12 -4 19 4 7 9 30 9 51 2 39 -6 46 -52 40 -16 -2 -42 23
-42 41 0 7 5 20 11 28 9 13 10 12 5 -2 -3 -10 -3 -25 0 -33 7 -18 34 -20 34
-2 0 8 4 7 11 -3 9 -12 10 -10 6 8 -5 20 -2 22 16 17 17 -5 13 2 -16 30 -21
21 -50 55 -63 77 -22 35 -30 39 -55 36 -16 -3 -29 0 -29 5 0 39 -92 104 -195
137 -22 7 -49 19 -60 26 -22 14 -154 48 -225 59 -25 3 -60 11 -79 17 -26 8
-35 7 -42 -3 -8 -11 -11 -11 -20 4 -5 9 -14 17 -19 17 -5 0 -2 -13 7 -29 16
-27 16 -29 -8 -58 -23 -29 -75 -42 -65 -17 2 6 -3 10 -13 10 -53 1 -72 6 -78
22 -3 9 -13 25 -21 34 -12 14 -12 20 -2 33 16 19 30 19 30 0 0 -8 4 -15 10
-15 5 0 7 6 4 14 -3 8 2 16 13 19 13 3 11 5 -7 5 -28 1 -130 10 -237 21 -46 4
-77 3 -83 -3 -7 -7 -10 -4 -10 7 0 9 -6 16 -12 15 -7 -2 -12 3 -10 10 1 6 -3
12 -9 12 -5 0 -8 4 -4 10 8 13 -5 61 -15 55 -5 -3 -11 -1 -15 5 -11 18 -30 11
-50 -20z m-114 -111 c-9 -22 -10 -22 -10 -3 -1 11 2 24 6 27 12 12 14 0 4 -24z
m-581 -9 c0 -5 -4 -10 -10 -10 -5 0 -10 5 -10 10 0 6 5 10 10 10 6 0 10 -4 10
-10z m838 -10 c7 -11 10 -20 7 -20 -3 0 -14 9 -25 20 -12 12 -15 20 -7 20 7 0
18 -9 25 -20z m-337 -7 c13 -17 13 -17 -6 -3 -11 8 -22 16 -24 17 -2 2 0 3 6
3 6 0 17 -8 24 -17z m504 -14 c-4 -5 1 -19 10 -29 11 -13 13 -20 5 -25 -6 -4
-14 -4 -17 -1 -4 3 -1 6 7 6 10 0 10 3 0 15 -7 8 -16 12 -21 9 -10 -6 -12 19
-2 29 10 11 25 8 18 -4z m-770 -39 c3 -5 1 -10 -4 -10 -6 0 -11 5 -11 10 0 6
2 10 4 10 3 0 8 -4 11 -10z m75 6 c0 -11 -19 -15 -25 -6 -3 5 1 10 9 10 9 0
16 -2 16 -4z m553 -13 c-7 -2 -19 -2 -25 0 -7 3 -2 5 12 5 14 0 19 -2 13 -5z
m-653 -30 c0 -22 -2 -25 -10 -13 -13 20 -13 40 0 40 6 0 10 -12 10 -27z m710
-42 c0 -12 -20 -25 -27 -18 -7 7 6 27 18 27 5 0 9 -4 9 -9z m-870 -15 c0 -3
-4 -8 -10 -11 -5 -3 -10 -1 -10 4 0 6 5 11 10 11 6 0 10 -2 10 -4z m-925 -46
c3 -5 1 -10 -4 -10 -6 0 -11 5 -11 10 0 6 2 10 4 10 3 0 8 -4 11 -10z m135
-20 c0 -5 -4 -10 -10 -10 -5 0 -10 5 -10 10 0 6 5 10 10 10 6 0 10 -4 10 -10z
m2445 0 c3 -5 2 -10 -4 -10 -5 0 -13 5 -16 10 -3 6 -2 10 4 10 5 0 13 -4 16
-10z m-3018 -16 c-3 -3 -12 -4 -19 -1 -8 3 -5 6 6 6 11 1 17 -2 13 -5z m1727
-3 c4 -5 -3 -7 -14 -4 -23 6 -26 13 -6 13 8 0 17 -4 20 -9z m-1904 -31 c0 -5
-5 -10 -11 -10 -5 0 -7 5 -4 10 3 6 8 10 11 10 2 0 4 -4 4 -10z m847 -6 c-3
-3 -12 -4 -19 -1 -8 3 -5 6 6 6 11 1 17 -2 13 -5z m1033 -34 c0 -5 -7 -10 -16
-10 -8 0 -12 5 -9 10 3 6 10 10 16 10 5 0 9 -4 9 -10z m530 -4 c0 -2 -7 -7
-16 -10 -8 -3 -12 -2 -9 4 6 10 25 14 25 6z m979 -64 c-8 -3 -20 -9 -27 -15
-11 -8 -11 -5 -1 16 10 22 15 25 27 15 12 -10 12 -13 1 -16z m78 -17 c-12 -13
-37 -9 -37 6 0 5 7 9 16 9 9 0 12 5 8 13 -6 8 -3 8 9 -1 13 -11 14 -17 4 -27z
m-1891 6 c-3 -5 -16 -11 -28 -14 -22 -6 -22 -5 -4 8 22 17 40 20 32 6z m521 3
c-3 -3 -12 -4 -19 -1 -8 3 -5 6 6 6 11 1 17 -2 13 -5z m-577 -18 c0 -3 -4 -8
-10 -11 -5 -3 -10 -1 -10 4 0 6 5 11 10 11 6 0 10 -2 10 -4z m510 0 c0 -3 -4
-8 -10 -11 -5 -3 -10 -1 -10 4 0 6 5 11 10 11 6 0 10 -2 10 -4z m-1683 -38
c-3 -7 -5 -2 -5 12 0 14 2 19 5 13 2 -7 2 -19 0 -25z m-787 -3 c0 -10 -10 -15
-32 -15 -31 1 -32 1 -14 15 25 19 46 19 46 0z m365 2 c-10 -8 -15 -19 -11 -25
5 -9 -21 -32 -38 -32 -12 0 41 69 53 70 11 0 10 -4 -4 -13z m2560 -57 c-27
-12 -35 -12 -35 0 0 6 12 10 28 9 24 0 25 -1 7 -9z m40 -10 c-3 -5 -11 -10
-16 -10 -6 0 -7 5 -4 10 3 6 11 10 16 10 6 0 7 -4 4 -10z m-3211 -95 c-4 -8
-8 -15 -10 -15 -2 0 -4 7 -4 15 0 8 4 15 10 15 5 0 7 -7 4 -15z m2691 -64 c-3
-6 -11 -8 -17 -5 -6 4 -5 9 3 15 16 10 23 4 14 -10z m1551 -48 c-10 -10 -19 5
-10 18 6 11 8 11 12 0 2 -7 1 -15 -2 -18z m-4468 -2 c-7 -11 -16 -17 -20 -14
-10 5 10 33 23 33 5 0 4 -9 -3 -19z m4352 -16 c-7 -8 -20 -15 -29 -15 -11 1
-8 5 9 15 32 18 35 18 20 0z m60 -95 c0 -5 -7 -7 -15 -4 -8 4 -15 8 -15 10 0
2 7 4 15 4 8 0 15 -4 15 -10z m51 -37 c13 -17 13 -17 -6 -3 -11 8 -22 16 -24
17 -2 2 0 3 6 3 6 0 17 -8 24 -17z m-3726 -33 c3 -5 1 -10 -4 -10 -6 0 -11 5
-11 10 0 6 2 10 4 10 3 0 8 -4 11 -10z m-490 -30 c-3 -5 -10 -10 -16 -10 -5 0
-9 5 -9 10 0 6 7 10 16 10 8 0 12 -4 9 -10z m-130 -20 c3 -5 1 -10 -4 -10 -6
0 -11 5 -11 10 0 6 2 10 4 10 3 0 8 -4 11 -10z m1432 -45 c-2 -5 -12 -10 -22
-10 -10 0 -20 5 -22 10 -1 6 8 10 22 10 14 0 24 -4 22 -10z m-630 -215 c-1
-23 -8 -25 -25 -8 -17 17 -15 28 7 28 14 0 19 -6 18 -20z m1563 10 c0 -5 -9
-10 -20 -10 -11 0 -20 5 -20 10 0 6 9 10 20 10 11 0 20 -4 20 -10z m1312 -22
c-7 -7 -12 -8 -12 -2 0 14 12 26 19 19 2 -3 -1 -11 -7 -17z m52 6 c4 -10 1
-14 -6 -12 -15 5 -23 28 -10 28 5 0 13 -7 16 -16z m-434 -14 c0 -5 -7 -10 -16
-10 -8 0 -12 5 -9 10 3 6 10 10 16 10 5 0 9 -4 9 -10z m-435 -10 c3 -6 -1 -7
-9 -4 -18 7 -21 14 -7 14 6 0 13 -4 16 -10z m310 -10 c3 -5 -1 -10 -9 -10 -8
0 -18 5 -21 10 -3 6 1 10 9 10 8 0 18 -4 21 -10z m575 -10 c0 -5 -4 -10 -10
-10 -5 0 -10 5 -10 10 0 6 5 10 10 10 6 0 10 -4 10 -10z m-546 -35 c-38 -33
-54 -42 -54 -29 0 14 56 62 74 63 15 1 10 -8 -20 -34z m286 5 c0 -5 -7 -10
-16 -10 -8 0 -12 5 -9 10 3 6 10 10 16 10 5 0 9 -4 9 -10z m-2660 -20 c0 -5
-5 -10 -11 -10 -5 0 -7 5 -4 10 3 6 8 10 11 10 2 0 4 -4 4 -10z m588 -8 c2 -7
-2 -10 -12 -6 -9 3 -16 11 -16 16 0 13 23 5 28 -10z m-1408 -12 c0 -5 -5 -10
-11 -10 -5 0 -7 5 -4 10 3 6 8 10 11 10 2 0 4 -4 4 -10z m2924 -25 c-5 -12 -9
-12 -29 3 -14 11 -19 19 -12 24 16 10 47 -10 41 -27z m456 25 c0 -5 -4 -10
-10 -10 -5 0 -10 5 -10 10 0 6 5 10 10 10 6 0 10 -4 10 -10z m635 0 c-3 -5
-12 -10 -18 -10 -7 0 -6 4 3 10 19 12 23 12 15 0z m-370 -11 c11 -17 -1 -21
-15 -4 -8 9 -8 15 -2 15 6 0 14 -5 17 -11z m-1025 -3 c0 -3 -13 -14 -29 -25
-28 -20 -29 -20 -34 -2 -3 13 -1 18 9 14 7 -2 21 0 31 6 21 12 23 13 23 7z
m247 -12 c-3 -3 -12 -4 -19 -1 -8 3 -5 6 6 6 11 1 17 -2 13 -5z m-958 -31 c0
-25 -1 -25 -8 -8 -5 11 -7 23 -4 28 8 14 13 7 12 -20z m806 17 c3 -6 -1 -7 -9
-4 -18 7 -21 14 -7 14 6 0 13 -4 16 -10z m1265 -20 c0 -5 -5 -10 -11 -10 -5 0
-7 5 -4 10 3 6 8 10 11 10 2 0 4 -4 4 -10z m-2240 -9 c0 -12 -20 -25 -27 -18
-7 7 6 27 18 27 5 0 9 -4 9 -9z m-1821 -37 c-11 -14 -39 -8 -39 8 0 5 -4 6
-10 3 -5 -3 -7 0 -4 8 4 12 11 13 34 4 22 -8 26 -14 19 -23z m1524 29 c-7 -2
-19 -2 -25 0 -7 3 -2 5 12 5 14 0 19 -2 13 -5z m2095 -12 c3 -8 -1 -12 -9 -9
-7 2 -15 10 -17 17 -3 8 1 12 9 9 7 -2 15 -10 17 -17z m-1908 -1 c-20 -13 -33
-13 -25 0 3 6 14 10 23 10 15 0 15 -2 2 -10z m436 -17 c-10 -10 -19 5 -10 18
6 11 8 11 12 0 2 -7 1 -15 -2 -18z m-156 7 c0 -5 -5 -10 -11 -10 -5 0 -7 5 -4
10 3 6 8 10 11 10 2 0 4 -4 4 -10z m1930 0 c0 -5 -7 -10 -16 -10 -8 0 -12 5
-9 10 3 6 10 10 16 10 5 0 9 -4 9 -10z m-2445 -30 c3 -5 1 -10 -4 -10 -6 0
-11 5 -11 10 0 6 2 10 4 10 3 0 8 -4 11 -10z m345 -10 c-8 -6 -24 -9 -35 -9
-15 0 -13 4 10 14 32 14 49 10 25 -5z m-70 6 c0 -3 -4 -8 -10 -11 -5 -3 -10
-1 -10 4 0 6 5 11 10 11 6 0 10 -2 10 -4z m-1197 -57 c-4 -15 -9 -17 -17 -9
-8 8 -7 13 4 20 8 5 16 10 17 10 0 0 -1 -9 -4 -21z m299 -33 c-14 -26 -17 -28
-20 -11 -3 10 1 21 7 23 6 2 11 13 11 25 0 16 3 18 9 8 5 -8 2 -25 -7 -45z
m1388 35 c0 -12 -29 -23 -41 -15 -18 10 -9 24 16 24 14 0 25 -4 25 -9z m-2303
-37 c-3 -3 -12 -4 -19 -1 -8 3 -5 6 6 6 11 1 17 -2 13 -5z m751 -6 c4 -49 8
-64 19 -73 7 -6 10 -19 7 -32 -5 -17 -14 -23 -35 -23 -15 0 -31 -5 -34 -10 -4
-6 -3 -10 2 -9 4 1 25 -1 46 -6 36 -7 39 -10 33 -36 -4 -22 -2 -29 10 -29 8 0
12 5 9 10 -3 6 1 10 9 10 25 0 8 -27 -27 -44 -20 -9 -36 -11 -41 -5 -6 5 -18
9 -27 9 -9 0 -24 12 -34 26 -16 24 -16 26 4 31 12 3 18 10 15 15 -3 5 -12 7
-20 4 -8 -3 -14 -2 -14 3 0 14 34 39 63 46 39 10 33 25 -8 20 -20 -3 -35 -1
-35 5 0 6 -11 8 -25 6 -23 -4 -25 -1 -25 28 0 32 2 34 33 32 18 -2 31 -7 30
-14 -2 -7 2 -12 8 -12 6 0 9 7 5 15 -3 8 -3 22 0 30 7 18 30 20 32 3z m-178
-9 c0 -13 -22 -103 -26 -108 -7 -8 -44 32 -44 46 0 20 41 73 57 73 7 0 13 -5
13 -11z m286 0 c3 -6 1 -22 -6 -35 -10 -18 -16 -21 -27 -13 -14 12 -18 41 -6
52 10 11 31 8 39 -4z m-828 -26 c0 -21 -2 -23 -10 -9 -5 9 -6 21 -3 26 10 16
13 12 13 -17z m-28 7 c0 -5 -5 -10 -11 -10 -5 0 -7 5 -4 10 3 6 8 10 11 10 2
0 4 -4 4 -10z m1880 -34 c0 -3 -4 -8 -10 -11 -5 -3 -10 -1 -10 4 0 6 5 11 10
11 6 0 10 -2 10 -4z m132 -31 c4 -17 1 -25 -8 -25 -14 0 -19 31 -7 43 9 10 10
9 15 -18z m-1152 5 c0 -5 -4 -10 -10 -10 -5 0 -10 5 -10 10 0 6 5 10 10 10 6
0 10 -4 10 -10z m3583 -47 c-3 -18 -9 -30 -14 -28 -4 3 -6 12 -4 20 13 42 16
48 19 44 2 -2 1 -19 -1 -36z m-3549 -16 c-3 -10 -17 -17 -30 -17 -21 0 -23 3
-14 19 18 35 58 33 44 -2z m3671 23 c-3 -5 -11 -10 -16 -10 -6 0 -7 5 -4 10 3
6 11 10 16 10 6 0 7 -4 4 -10z m-3615 -76 c0 -31 -23 -28 -28 4 -2 15 2 22 12
22 11 0 16 -9 16 -26z m3450 6 c0 -13 -5 -18 -15 -14 -8 4 -15 12 -15 20 0 8
7 14 15 14 8 0 15 -9 15 -20z m-4477 -10 c-16 -6 -21 -15 -17 -27 5 -14 4 -15
-4 -4 -15 20 -3 41 22 40 21 0 21 0 -1 -9z m4514 -42 c-3 -7 -5 -2 -5 12 0 14
2 19 5 13 2 -7 2 -19 0 -25z m-4481 -24 c-4 -9 -9 -15 -11 -12 -3 3 -3 13 1
22 4 9 9 15 11 12 3 -3 3 -13 -1 -22z m-24 -99 c0 -5 -5 -11 -11 -13 -6 -2
-11 4 -11 13 0 9 5 15 11 13 6 -2 11 -8 11 -13z m4513 -63 c-8 -8 -25 10 -19
20 4 6 9 5 15 -3 4 -7 6 -15 4 -17z m40 -52 c3 -6 -1 -7 -9 -4 -18 7 -21 14
-7 14 6 0 13 -4 16 -10z m35 -39 c0 -5 -9 -11 -20 -14 -20 -5 -26 3 -13 16 9
10 33 8 33 -2z m-71 -28 c0 -11 -3 -13 -6 -5 -2 6 -10 9 -15 6 -7 -4 -8 -2 -4
4 11 18 26 14 25 -5z m41 -7 c0 -3 -4 -8 -10 -11 -5 -3 -10 -1 -10 4 0 6 5 11
10 11 6 0 10 -2 10 -4z m-133 -162 c-3 -3 -12 -4 -19 -1 -8 3 -5 6 6 6 11 1
17 -2 13 -5z m47 -39 c-6 -16 -24 -21 -24 -7 0 11 11 22 21 22 5 0 6 -7 3 -15z
m-4379 -4 c3 -5 1 -12 -5 -16 -5 -3 -10 1 -10 9 0 18 6 21 15 7z m-40 -41 c-1
-17 -6 -35 -12 -41 -7 -7 -9 2 -7 28 2 45 2 43 12 43 5 0 8 -14 7 -30z m-128
-42 c-3 -8 -6 -5 -6 6 -1 11 2 17 5 13 3 -3 4 -12 1 -19z m4581 -5 c9 -27 8
-28 -29 -30 -43 -3 -47 1 -22 25 16 16 16 16 10 0 -7 -19 0 -23 21 -10 7 5 10
16 6 25 -3 9 -4 17 -1 17 3 0 9 -12 15 -27z m-4522 -10 c-10 -10 -19 5 -10 18
6 11 8 11 12 0 2 -7 1 -15 -2 -18z m904 23 c0 -3 -4 -8 -10 -11 -5 -3 -10 -1
-10 4 0 6 5 11 10 11 6 0 10 -2 10 -4z m3641 -109 c-10 -9 -11 -8 -5 6 3 10 9
15 12 12 3 -3 0 -11 -7 -18z m-4731 -8 c0 -5 -4 -9 -10 -9 -5 0 -10 7 -10 16
0 8 5 12 10 9 6 -3 10 -10 10 -16z m160 6 c0 -8 -4 -15 -10 -15 -5 0 -10 7
-10 15 0 8 5 15 10 15 6 0 10 -7 10 -15z m-60 -19 c0 -3 -4 -8 -10 -11 -5 -3
-10 -1 -10 4 0 6 5 11 10 11 6 0 10 -2 10 -4z m167 -2 c-3 -3 -12 -4 -19 -1
-8 3 -5 6 6 6 11 1 17 -2 13 -5z m-312 -14 c3 -5 -3 -10 -15 -10 -12 0 -18 5
-15 10 3 6 10 10 15 10 5 0 12 -4 15 -10z m63 -16 c-16 -17 -43 -11 -32 7 3 5
9 7 14 4 5 -3 12 0 15 6 4 5 10 8 13 4 3 -3 -1 -13 -10 -21z m52 -4 c0 -5 -9
-14 -20 -20 -14 -7 -20 -7 -20 0 0 5 7 10 15 10 8 0 15 5 15 10 0 6 2 10 5 10
3 0 5 -4 5 -10z m40 0 c0 -5 -7 -10 -16 -10 -8 0 -12 5 -9 10 3 6 10 10 16 10
5 0 9 -4 9 -10z m110 -35 c0 -10 -10 -15 -27 -15 -26 0 -26 1 -7 15 25 19 34
19 34 0z m445 5 c3 -5 1 -10 -4 -10 -6 0 -11 5 -11 10 0 6 2 10 4 10 3 0 8 -4
11 -10z m-209 -27 c-10 -10 -19 5 -10 18 6 11 8 11 12 0 2 -7 1 -15 -2 -18z
m182 -13 c-7 -10 -18 -16 -26 -13 -10 4 -11 8 -2 13 7 4 10 12 6 18 -4 6 2 8
13 5 16 -4 18 -8 9 -23z m-128 10 c0 -5 -2 -10 -4 -10 -3 0 -8 5 -11 10 -3 6
-1 10 4 10 6 0 11 -4 11 -10z m-500 -40 c0 -12 -8 -12 -35 0 -18 8 -17 9 8 9
15 1 27 -3 27 -9z m727 -22 c-3 -8 -6 -5 -6 6 -1 11 2 17 5 13 3 -3 4 -12 1
-19z m-432 -8 c8 -13 -18 -15 -155 -10 -43 2 -50 4 -30 10 37 12 178 12 185 0z
m2375 -80 c0 -5 -4 -10 -10 -10 -5 0 -10 5 -10 10 0 6 5 10 10 10 6 0 10 -4
10 -10z m1203 -16 c-4 -10 -9 -12 -15 -6 -12 12 -1 35 12 27 5 -3 6 -13 3 -21z
m-338 -24 c-3 -5 -16 -10 -28 -9 -20 1 -20 2 3 9 14 4 26 8 28 9 2 1 0 -3 -3
-9z m-58 -6 c-3 -3 -12 -4 -19 -1 -8 3 -5 6 6 6 11 1 17 -2 13 -5z m-980 -69
c164 -14 377 -34 473 -45 96 -10 202 -21 235 -25 33 -3 71 -7 85 -10 14 -2 59
-7 100 -10 68 -5 106 -10 120 -15 3 -1 34 -3 70 -4 173 -6 376 -19 385 -26 6
-5 48 -11 95 -15 46 -3 86 -7 88 -9 1 -2 -43 -9 -100 -15 -153 -18 -221 -28
-346 -53 -88 -18 -115 -20 -121 -10 -7 12 -42 6 -96 -19 -11 -5 -42 -13 -70
-19 -61 -13 -127 -35 -166 -55 -24 -13 -36 -14 -68 -4 -31 9 -43 8 -69 -5 -18
-9 -34 -27 -38 -41 -7 -29 -12 -30 -144 -44 -110 -12 -109 -12 -135 69 -31 97
-84 189 -119 205 -53 24 -340 121 -471 158 -71 21 -42 20 292 -8z m1953 -5
c-8 -5 -17 -7 -19 -4 -3 3 1 9 9 14 8 5 17 7 19 4 3 -3 -1 -9 -9 -14z m-966
-56 c5 -14 4 -15 -9 -4 -17 14 -19 20 -6 20 5 0 12 -7 15 -16z m-3954 -14 c0
-5 -7 -10 -15 -10 -8 0 -15 5 -15 10 0 6 7 10 15 10 8 0 15 -4 15 -10z m4540
-10 c0 -5 -5 -10 -11 -10 -5 0 -7 5 -4 10 3 6 8 10 11 10 2 0 4 -4 4 -10z
m-257 -207 c26 -3 47 -10 47 -16 0 -5 8 -16 18 -23 15 -12 15 -13 0 -14 -9 0
-18 5 -20 11 -2 6 -25 13 -51 16 -26 3 -47 10 -47 14 0 5 -9 9 -21 9 -12 0
-17 4 -14 11 4 6 14 7 24 4 9 -4 37 -9 64 -12z m552 -47 c8 -18 24 -39 36 -47
19 -13 20 -17 8 -37 -8 -12 -21 -22 -29 -22 -12 0 -12 -2 -1 -9 8 -5 9 -11 3
-15 -6 -4 -19 5 -29 19 -10 15 -28 37 -40 50 -15 15 -19 26 -12 31 6 3 8 17 5
29 -3 13 -3 30 0 39 9 23 43 2 59 -38z m798 30 c6 -14 0 -26 -13 -26 -3 0 -6
9 -6 20 0 23 11 27 19 6z m55 7 c-10 -2 -26 -2 -35 0 -10 3 -2 5 17 5 19 0 27
-2 18 -5z m-153 -21 c-3 -3 -11 0 -18 7 -9 10 -8 11 6 5 10 -3 15 -9 12 -12z
m-970 -22 c3 -5 1 -10 -4 -10 -6 0 -11 5 -11 10 0 6 2 10 4 10 3 0 8 -4 11
-10z m995 -16 c0 -9 -28 -3 -46 11 -17 13 -16 14 14 4 17 -6 32 -13 32 -15z
m-1290 12 c0 -2 3 -11 6 -19 4 -12 0 -14 -15 -10 -27 7 -36 33 -11 33 11 0 20
-2 20 -4z m1820 -6 c0 -5 -2 -10 -4 -10 -3 0 -8 5 -11 10 -3 6 -1 10 4 10 6 0
11 -4 11 -10z m-1556 -8 c-19 -13 -12 -42 10 -42 19 -1 19 -3 -7 -25 -30 -26
-52 -32 -62 -15 -3 6 1 10 10 10 22 0 37 42 19 53 -23 13 -16 27 14 27 15 0
22 -4 16 -8z m-3469 -12 c3 -6 -1 -7 -9 -4 -18 7 -21 14 -7 14 6 0 13 -4 16
-10z m-265 -27 c0 -15 -2 -16 -10 -3 -8 12 -10 12 -10 1 0 -8 -3 -12 -6 -8 -8
7 4 27 17 27 5 0 9 -8 9 -17z m45 3 c12 -12 12 -15 1 -19 -8 -3 -16 2 -19 14
-6 23 -1 24 18 5z m185 -16 c0 -5 -4 -10 -9 -10 -6 0 -13 5 -16 10 -3 6 1 10
9 10 9 0 16 -4 16 -10z m3215 -9 c-3 -6 -11 -11 -16 -11 -5 0 -4 6 3 14 14 16
24 13 13 -3z m1405 9 c0 -5 -4 -10 -10 -10 -5 0 -10 5 -10 10 0 6 5 10 10 10
6 0 10 -4 10 -10z m-5000 -44 c0 -7 -50 0 -57 8 -4 5 -2 6 5 2 6 -4 12 -2 12
4 0 8 6 8 20 0 11 -6 20 -12 20 -14z m5055 14 c19 -8 19 -9 -2 -9 -12 -1 -25
4 -28 9 -7 12 2 12 30 0z m-5104 -42 c17 -16 15 -28 -3 -28 -5 0 -7 4 -3 9 3
5 -3 12 -14 16 -10 3 -21 15 -24 26 -5 17 -3 18 11 7 9 -7 24 -20 33 -30z
m3783 17 c-4 -8 -10 -15 -15 -15 -5 0 -9 7 -9 15 0 8 7 15 15 15 9 0 12 -6 9
-15z m-3909 -15 c-3 -5 -12 -10 -18 -10 -7 0 -6 4 3 10 19 12 23 12 15 0z
m3818 -7 c-7 -2 -21 -2 -30 0 -10 3 -4 5 12 5 17 0 24 -2 18 -5z m380 -7 c24
-18 21 -28 -5 -24 -13 2 -22 9 -20 16 1 6 -2 12 -8 12 -5 0 -10 -4 -10 -10 0
-5 -7 -10 -15 -10 -18 0 -20 16 -2 23 21 9 41 7 60 -7z m-436 -2 c-3 -3 -12
-4 -19 -1 -8 3 -5 6 6 6 11 1 17 -2 13 -5z m-3450 -30 c-3 -3 -12 -4 -19 -1
-8 3 -5 6 6 6 11 1 17 -2 13 -5z m3918 -44 c3 -5 -1 -10 -9 -10 -9 0 -16 5
-16 10 0 6 4 10 9 10 6 0 13 -4 16 -10z m-445 -20 c0 -5 -4 -10 -10 -10 -5 0
-10 5 -10 10 0 6 5 10 10 10 6 0 10 -4 10 -10z m-4346 -15 c6 -17 -2 -45 -14
-45 -4 0 -7 13 -6 30 1 32 10 39 20 15z m201 -6 c-4 -5 -13 -9 -22 -9 -13 0
-13 3 -3 15 13 15 35 11 25 -6z m4574 -3 c10 -12 8 -13 -8 -9 -12 3 -21 9 -21
14 0 14 16 11 29 -5z m905 -17 c-3 -5 -12 -9 -20 -9 -8 0 -14 -5 -14 -11 0 -5
-5 -7 -11 -3 -8 4 -7 9 2 15 8 5 10 9 6 9 -5 0 -6 4 -3 9 3 5 15 7 26 4 11 -3
17 -9 14 -14z m786 -40 c0 -5 4 -8 8 -5 8 5 42 -28 42 -39 0 -14 -29 -2 -60
25 -32 27 -33 30 -12 30 12 0 22 -5 22 -11z m-6450 -43 c0 -3 -4 -8 -10 -11
-5 -3 -10 -1 -10 4 0 6 5 11 10 11 6 0 10 -2 10 -4z m-30 -10 c0 -3 -4 -8 -10
-11 -5 -3 -10 -1 -10 4 0 6 5 11 10 11 6 0 10 -2 10 -4z m3993 -16 c7 -11 22
-21 33 -23 27 -5 78 -30 86 -42 12 -15 9 -85 -2 -85 -6 0 -21 -12 -33 -26 -15
-17 -28 -23 -40 -19 -24 10 -21 22 7 29 32 8 43 34 11 28 -12 -2 -26 1 -29 7
-11 17 -36 13 -30 -4 9 -22 -14 -18 -26 4 -13 25 -6 29 53 27 26 -1 47 2 47 6
0 7 -40 13 -62 9 -5 0 -8 4 -8 10 0 12 -30 44 -30 32 0 -4 -7 0 -14 10 -9 12
-16 14 -21 7 -4 -6 -1 -17 5 -25 7 -8 9 -15 5 -15 -4 0 -1 -7 6 -17 13 -15 12
-15 -7 -5 -20 11 -34 32 -34 51 0 15 42 61 55 61 8 0 20 -9 28 -20z m-3573 0
c0 -5 -5 -10 -11 -10 -5 0 -7 5 -4 10 3 6 8 10 11 10 2 0 4 -4 4 -10z m-1430
-4 c0 -3 -4 -8 -10 -11 -5 -3 -10 -1 -10 4 0 6 5 11 10 11 6 0 10 -2 10 -4z
m5367 -22 c-3 -3 -12 -4 -19 -1 -8 3 -5 6 6 6 11 1 17 -2 13 -5z m-4242 -84
c19 -37 19 -62 0 -36 -14 18 -15 19 -15 2 0 -13 -5 -17 -20 -13 -16 4 -20 0
-20 -19 0 -26 27 -33 48 -12 7 7 12 8 11 3 0 -6 -13 -20 -28 -32 -37 -29 -59
-14 -67 48 -6 44 -5 47 27 67 44 28 46 28 64 -8z m4260 11 c3 -5 1 -12 -5 -16
-5 -3 -10 1 -10 9 0 18 6 21 15 7z m-409 -68 c-8 -8 -36 10 -36 25 0 13 3 12
20 -3 11 -10 18 -20 16 -22z m2784 27 c0 -5 -2 -10 -4 -10 -3 0 -8 5 -11 10
-3 6 -1 10 4 10 6 0 11 -4 11 -10z m-6416 -26 c3 -8 2 -12 -4 -9 -6 3 -10 10
-10 16 0 14 7 11 14 -7z m4281 6 c3 -5 1 -10 -4 -10 -6 0 -11 5 -11 10 0 6 2
10 4 10 3 0 8 -4 11 -10z m2169 -11 c-6 -11 -24 -2 -24 11 0 5 7 7 15 4 8 -4
12 -10 9 -15z m106 11 c0 -13 -30 -13 -50 0 -11 7 -7 10 18 10 17 0 32 -4 32
-10z m-6910 -4 c0 -3 -4 -8 -10 -11 -5 -3 -10 -1 -10 4 0 6 5 11 10 11 6 0 10
-2 10 -4z m4610 -16 c0 -5 -4 -10 -10 -10 -5 0 -10 5 -10 10 0 6 5 10 10 10 6
0 10 -4 10 -10z m2250 0 c12 -8 11 -10 -7 -10 -13 0 -23 5 -23 10 0 13 11 13
30 0z m-6840 -10 c0 -5 -10 -10 -22 -10 -19 0 -20 2 -8 10 19 13 30 13 30 0z
m3975 0 c3 -6 -1 -7 -9 -4 -18 7 -21 14 -7 14 6 0 13 -4 16 -10z m690 -11
c-10 -15 -25 -10 -19 6 4 8 10 12 15 9 5 -3 7 -10 4 -15z m-1675 -24 c0 -8 -2
-15 -4 -15 -2 0 -6 7 -10 15 -3 8 -1 15 4 15 6 0 10 -7 10 -15z m4227 -1 c-3
-3 -12 -4 -19 -1 -8 3 -5 6 6 6 11 1 17 -2 13 -5z m-3596 -37 c-10 -9 -11 -8
-5 6 3 10 9 15 12 12 3 -3 0 -11 -7 -18z m2784 -16 c-3 -6 -11 -11 -16 -11 -5
0 -4 6 3 14 14 16 24 13 13 -3z m-3065 -1 c0 -5 -5 -10 -11 -10 -5 0 -7 5 -4
10 3 6 8 10 11 10 2 0 4 -4 4 -10z m45 0 c3 -6 -1 -7 -9 -4 -18 7 -21 14 -7
14 6 0 13 -4 16 -10z m1264 -43 c1 -5 -3 -5 -9 -2 -5 3 -10 16 -9 28 0 21 1
21 9 2 5 -11 9 -24 9 -28z m-1379 -9 c0 -20 -18 -43 -27 -35 -4 5 -1 12 6 16
7 5 10 14 7 20 -4 6 -2 11 3 11 6 0 11 -6 11 -12z m2190 -2 c0 -11 -19 -15
-25 -6 -3 5 1 10 9 10 9 0 16 -2 16 -4z m-80 -21 c0 -9 -9 -15 -22 -15 -21 0
-21 0 -2 15 24 18 24 18 24 0z m-6290 -10 c-7 -9 -15 -13 -19 -10 -3 3 1 10 9
15 21 14 24 12 10 -5z m3578 1 c-7 -8 -16 -12 -21 -9 -11 7 2 23 19 23 12 0
12 -2 2 -14z m62 -6 c10 -19 10 -20 -9 -8 -22 13 -28 28 -11 28 5 0 14 -9 20
-20z m682 -2 c-7 -7 -12 -8 -12 -2 0 14 12 26 19 19 2 -3 -1 -11 -7 -17z
m3773 -8 c3 -5 -1 -10 -10 -10 -9 0 -13 5 -10 10 3 6 8 10 10 10 2 0 7 -4 10
-10z m-4561 -16 c3 -9 6 -25 6 -37 -1 -20 -2 -21 -14 -4 -7 9 -18 17 -25 17
-12 0 -15 23 -4 33 11 12 31 7 37 -9z m-3494 -37 c0 -2 -9 -12 -20 -22 -17
-16 -20 -16 -20 -2 0 8 8 18 18 20 9 3 18 5 20 6 1 0 2 -1 2 -2z m4520 -7 c0
-5 -2 -10 -4 -10 -3 0 -8 5 -11 10 -3 6 -1 10 4 10 6 0 11 -4 11 -10z m-4470
-26 c0 -2 -11 -4 -25 -4 -14 0 -25 4 -25 9 0 4 11 6 25 3 14 -2 25 -6 25 -8z
m-120 -35 c-11 -20 -30 -26 -30 -9 0 15 23 39 33 33 4 -2 2 -13 -3 -24z m3670
-4 c0 -9 -9 -15 -22 -14 -13 0 -17 3 -10 6 6 2 10 9 6 14 -3 5 2 9 10 9 9 0
16 -7 16 -15z m2210 -27 c0 -4 -9 -8 -20 -8 -11 0 -20 4 -20 9 0 6 9 9 20 8
11 -1 20 -5 20 -9z m2555 -8 c3 -11 10 -20 15 -20 4 0 10 -7 13 -14 4 -9 1
-13 -7 -10 -16 6 -50 64 -37 64 5 0 13 -9 16 -20z m-4465 -16 c0 -8 -5 -12
-10 -9 -6 4 -8 11 -5 16 9 14 15 11 15 -7z m2290 -11 c0 -17 -15 -16 -30 1 -9
12 -8 15 9 13 12 -1 21 -7 21 -14z m243 -40 c-7 -2 -19 -2 -25 0 -7 3 -2 5 12
5 14 0 19 -2 13 -5z m-538 -41 c-8 -9 -25 20 -18 31 3 5 10 2 15 -7 6 -10 7
-20 3 -24z m1339 -72 c10 -13 9 -13 -6 -1 -10 7 -17 23 -17 35 1 20 2 20 6 1
3 -11 10 -27 17 -35z m-34 20 c0 -5 -2 -10 -4 -10 -3 0 -8 5 -11 10 -3 6 -1
10 4 10 6 0 11 -4 11 -10z m-1915 -20 c10 -11 24 -20 32 -20 8 0 11 -5 8 -10
-10 -16 40 -61 69 -64 13 -2 39 -17 56 -35 34 -33 70 -40 90 -16 16 19 30 19
30 1 0 -8 3 -16 8 -18 4 -1 15 -16 24 -33 11 -20 30 -34 55 -42 21 -6 34 -12
28 -13 -28 -3 37 -24 118 -37 131 -22 227 -28 227 -13 0 9 14 11 45 8 25 -3
45 -2 45 1 0 4 17 6 39 4 25 -2 43 2 51 12 14 17 50 19 97 6 24 -7 31 -6 27 3
-4 10 8 12 48 8 42 -4 58 -11 79 -33 19 -22 28 -26 37 -17 9 9 15 9 24 0 7 -7
20 -12 30 -12 10 0 35 -7 56 -16 20 -9 52 -16 70 -15 17 2 32 -1 32 -6 0 -5
11 -10 24 -11 26 -2 148 -57 141 -63 -2 -3 21 -5 51 -5 45 0 54 3 54 18 0 26
20 22 21 -4 0 -13 3 -17 6 -10 9 22 58 14 73 -13 11 -20 16 -22 32 -14 16 9
25 4 53 -26 30 -31 38 -34 55 -25 24 13 40 6 40 -19 0 -26 26 -44 53 -37 16 4
26 0 35 -14 7 -11 23 -20 37 -20 14 0 25 -6 25 -12 0 -7 5 -5 11 4 13 22 72
24 89 3 7 -8 25 -15 41 -15 19 0 29 -5 29 -15 0 -18 16 -20 23 -2 4 7 6 6 6
-5 1 -14 14 -16 108 -14 73 2 114 -1 132 -10 20 -11 22 -14 9 -19 -9 -4 -18
-23 -22 -44 -5 -33 -9 -38 -33 -39 -79 -1 -188 -18 -188 -29 0 -21 -10 -22
-50 -8 -22 8 -59 14 -82 15 -28 0 -45 5 -51 16 -12 21 -71 27 -79 8 -4 -10
-26 -12 -96 -9 -107 5 -127 1 -120 -24 3 -14 -5 -20 -39 -30 -102 -29 -188
-70 -188 -91 0 -24 -47 -19 -75 8 -16 15 -31 21 -43 18 -11 -4 -31 -2 -45 3
-16 6 -29 7 -32 1 -7 -11 -60 -2 -97 16 -25 13 -28 12 -38 -6 -17 -32 -38 -24
-50 21 -8 30 -15 39 -26 35 -9 -3 -22 -6 -30 -6 -10 0 -12 -5 -7 -12 4 -7 6
-24 4 -38 -3 -30 -21 -52 -21 -27 0 19 -16 23 -22 6 -2 -7 -34 -12 -76 -14
-83 -3 -122 11 -140 50 -7 15 -27 32 -45 40 -18 7 -41 22 -51 33 -10 11 -36
24 -58 27 -45 8 -137 52 -154 74 -12 15 -34 7 -34 -13 0 -8 -12 -11 -35 -8
-40 5 -53 -13 -35 -49 l12 -22 19 24 c15 20 19 21 19 7 0 -10 -4 -18 -10 -18
-5 0 -10 -6 -10 -14 0 -31 -57 -49 -117 -36 -24 6 -30 5 -26 -6 3 -8 0 -14 -6
-14 -6 0 -11 5 -11 10 0 6 -6 10 -14 10 -8 0 -17 6 -19 13 -4 9 -8 9 -15 -2
-8 -11 -12 -10 -20 5 -8 14 -23 19 -62 21 -40 1 -55 6 -67 22 -8 12 -21 21
-29 21 -8 0 -26 22 -42 50 -19 35 -37 54 -62 64 -53 21 -113 28 -142 17 -17
-6 -29 -6 -36 1 -12 12 -122 -17 -122 -32 0 -5 -10 -7 -22 -4 -47 11 -53 9
-57 -16 -4 -35 -39 -66 -82 -74 -44 -8 -62 -26 -63 -65 -1 -16 -3 -27 -5 -25
-2 2 -11 -1 -18 -8 -16 -13 -33 4 -33 35 0 9 -5 17 -10 17 -6 0 -15 11 -20 25
-11 29 -22 31 -40 10 -23 -28 -86 -13 -75 17 4 9 0 18 -9 21 -16 6 -32 -25
-22 -42 4 -5 3 -16 0 -25 -9 -23 -34 -1 -34 30 0 12 -5 35 -10 49 -9 23 -13
25 -26 14 -22 -18 -44 -20 -44 -3 0 8 7 14 15 14 11 0 10 6 -7 25 -12 14 -27
25 -34 25 -7 0 -16 9 -19 20 -3 11 -13 20 -21 20 -8 0 -12 5 -9 10 4 6 -5 10
-21 10 -22 0 -24 -2 -14 -15 12 -15 5 -55 -11 -55 -5 0 -9 5 -9 10 0 6 -12 3
-26 -6 -30 -20 -17 -34 32 -34 27 0 32 -4 38 -32 3 -17 4 -33 1 -36 -7 -8 -54
27 -107 79 -36 35 -57 49 -78 49 -18 0 -29 6 -33 18 -5 23 -47 37 -47 16 0 -8
-4 -14 -10 -14 -11 0 -12 6 -4 37 6 21 50 38 60 22 2 -4 11 -6 18 -3 7 3 20
-1 27 -9 8 -7 26 -17 40 -20 29 -7 52 12 62 51 6 27 -19 31 -38 5 -11 -15 -13
-13 -20 15 -5 23 -14 34 -33 39 -16 4 -27 2 -30 -6 -2 -7 -13 -3 -31 11 -15
13 -42 34 -61 48 -18 14 -39 31 -47 38 -7 7 -13 10 -13 5 0 -4 -7 5 -15 20
-13 25 -13 31 1 52 9 13 15 26 15 29 -4 29 1 44 16 42 11 0 19 7 21 21 3 18
12 23 50 29 27 4 59 17 76 31 16 13 35 22 43 19 8 -4 22 -6 31 -7 11 0 12 -2
5 -6 -19 -7 -16 -20 7 -26 11 -3 20 -2 20 3 0 14 33 21 40 9 6 -8 9 -8 14 0 9
14 26 14 26 1 0 -15 31 -45 54 -54 12 -4 17 -13 13 -25 -3 -13 1 -21 14 -24
12 -3 19 -14 19 -28 l0 -23 16 22 c9 13 22 21 30 18 17 -7 72 43 58 52 -13 9
-15 50 -3 57 11 7 29 -36 29 -70 0 -14 8 -29 19 -35 30 -15 88 -13 95 5 3 8
11 15 18 15 7 0 19 9 26 20 7 12 23 25 35 30 12 6 29 14 37 19 8 5 23 12 33
15 9 3 17 15 17 28 0 29 58 88 86 88 13 0 27 8 33 17 7 14 12 15 25 4 8 -7 24
-10 34 -7 14 5 21 1 25 -14 7 -28 30 -25 67 10 39 36 88 40 115 10z m-1493
-22 c-7 -7 -12 -8 -12 -2 0 14 12 26 19 19 2 -3 -1 -11 -7 -17z m3418 18 c0
-3 -4 -8 -10 -11 -5 -3 -10 -1 -10 4 0 6 5 11 10 11 6 0 10 -2 10 -4z m-6170
-20 c0 -8 3 -22 6 -30 5 -12 2 -15 -10 -10 -9 3 -14 10 -11 14 3 5 1 11 -5 15
-15 9 -12 25 5 25 8 0 15 -6 15 -14z m6495 -5 c3 -5 1 -12 -4 -15 -5 -3 -11 1
-15 9 -6 16 9 21 19 6z m-375 -22 c0 -4 -7 -6 -15 -3 -8 4 -15 10 -15 15 0 4
7 6 15 3 8 -4 15 -10 15 -15z m-3173 -11 c-3 -8 -6 -5 -6 6 -1 11 2 17 5 13 3
-3 4 -12 1 -19z m-3993 -3 c-4 -8 -8 -15 -10 -15 -2 0 -4 7 -4 15 0 8 4 15 10
15 5 0 7 -7 4 -15z m853 -7 c-3 -8 -6 -5 -6 6 -1 11 2 17 5 13 3 -3 4 -12 1
-19z m78 -8 c-3 -5 -1 -10 4 -10 6 0 11 -5 11 -11 0 -8 -5 -8 -15 1 -13 11
-12 30 1 30 3 0 2 -4 -1 -10z m185 -6 c0 -8 -5 -12 -10 -9 -6 4 -8 11 -5 16 9
14 15 11 15 -7z m3704 1 c-6 -16 -24 -21 -24 -7 0 11 11 22 21 22 5 0 6 -7 3
-15z m2491 -14 c-3 -6 -11 -8 -17 -5 -6 4 -5 9 3 15 16 10 23 4 14 -10z m-65
-17 c0 -8 -4 -14 -10 -14 -5 0 -10 9 -10 21 0 11 5 17 10 14 6 -3 10 -13 10
-21z m-6330 -4 c0 -5 -5 -10 -11 -10 -5 0 -7 5 -4 10 3 6 8 10 11 10 2 0 4 -4
4 -10z m3117 -32 c-3 -8 -6 -5 -6 6 -1 11 2 17 5 13 3 -3 4 -12 1 -19z m3633
2 c0 -5 -4 -10 -10 -10 -5 0 -10 5 -10 10 0 6 5 10 10 10 6 0 10 -4 10 -10z
m-3616 -24 c-6 -15 -24 -23 -24 -11 0 8 24 34 28 30 1 -1 0 -10 -4 -19z
m-2587 -18 c1 -30 1 -31 -6 -8 -7 21 -5 40 2 40 2 0 3 -15 4 -32z m-1007 2 c0
-5 -4 -10 -10 -10 -5 0 -10 5 -10 10 0 6 5 10 10 10 6 0 10 -4 10 -10z m6645
0 c3 -5 2 -10 -4 -10 -5 0 -13 5 -16 10 -3 6 -2 10 4 10 5 0 13 -4 16 -10z
m-3125 -10 c0 -5 -5 -10 -11 -10 -5 0 -7 5 -4 10 3 6 8 10 11 10 2 0 4 -4 4
-10z m557 -22 c-3 -7 -5 -2 -5 12 0 14 2 19 5 13 2 -7 2 -19 0 -25z m131 1 c4
-24 3 -24 -12 -4 -19 24 -20 38 -3 33 6 -3 13 -15 15 -29z m-951 7 c-2 -6 -14
-13 -27 -14 -20 -3 -22 -1 -12 10 14 17 44 20 39 4z m-2982 -25 c-3 -6 -14
-10 -23 -10 -15 1 -15 2 1 6 9 2 17 9 17 15 0 6 3 9 6 5 3 -3 3 -10 -1 -16z
m-315 -1 c0 -5 -5 -10 -11 -10 -5 0 -7 5 -4 10 3 6 8 10 11 10 2 0 4 -4 4 -10z
m-435 -11 c11 -16 1 -19 -13 -3 -7 8 -8 14 -3 14 5 0 13 -5 16 -11z m3721 -5
c-3 -9 -6 -27 -6 -40 0 -14 -6 -24 -15 -24 -8 0 -13 6 -11 13 3 6 7 24 10 40
4 15 11 27 17 27 6 0 8 -7 5 -16z m-3381 -45 c-10 -15 -25 -10 -19 6 4 8 10
12 15 9 5 -3 7 -10 4 -15z m-160 -39 c24 -15 26 -20 13 -25 -10 -4 -25 2 -37
14 -36 36 -23 42 24 11z m7347 -12 c-7 -7 -12 -8 -12 -2 0 14 12 26 19 19 2
-3 -1 -11 -7 -17z m-6372 -68 c0 -5 -2 -10 -4 -10 -3 0 -8 5 -11 10 -3 6 -1
10 4 10 6 0 11 -4 11 -10z m-310 -25 c0 -1 -12 -2 -26 -2 -17 0 -22 2 -13 7
10 7 39 3 39 -5z m200 4 c0 -5 -9 -9 -20 -9 -11 0 -20 4 -20 8 0 4 9 8 20 9
11 1 20 -2 20 -8z m6284 -6 c4 -10 1 -20 -10 -26 -13 -8 -14 -11 -3 -18 7 -4
10 -11 7 -14 -19 -20 -31 26 -19 73 3 9 20 -1 25 -15z m-7123 -36 c-10 -9 -11
-8 -5 6 3 10 9 15 12 12 3 -3 0 -11 -7 -18z m3940 -2 c-1 -6 -4 -10 -9 -10
-11 0 -78 -45 -67 -45 6 0 3 -5 -5 -10 -10 -6 -11 -10 -2 -10 6 0 12 -4 12
-10 0 -21 -20 -9 -26 15 -3 14 -13 25 -22 25 -29 0 9 28 43 32 17 2 36 9 44
16 15 14 33 12 32 -3z m-531 -45 c0 -5 -5 -10 -11 -10 -5 0 -7 5 -4 10 3 6 8
10 11 10 2 0 4 -4 4 -10z m687 4 c-3 -3 -12 -4 -19 -1 -8 3 -5 6 6 6 11 1 17
-2 13 -5z m-647 -19 c0 -8 -2 -15 -4 -15 -2 0 -6 7 -10 15 -3 8 -1 15 4 15 6
0 10 -7 10 -15z m3951 -28 c-13 -13 -26 -3 -16 12 3 6 11 8 17 5 6 -4 6 -10
-1 -17z m-3947 -53 c4 -10 1 -14 -6 -12 -15 5 -23 28 -10 28 5 0 13 -7 16 -16z
m106 -27 c0 -4 -11 -13 -25 -19 -27 -12 -53 1 -41 21 7 11 66 10 66 -2z m355
-44 c-26 -18 -32 -7 -9 18 12 14 20 17 23 8 2 -7 -4 -18 -14 -26z m-125 -12
c0 -16 -36 -32 -56 -24 -16 6 -16 7 1 19 9 7 24 10 33 7 14 -5 15 -3 5 8 -18
19 -16 33 2 15 8 -8 15 -19 15 -25z m4328 -47 c-3 -14 -5 -12 -10 9 -3 19 -2
25 4 19 6 -6 8 -18 6 -28z m-4668 1 c0 -16 -6 -25 -15 -25 -9 0 -15 9 -15 25
0 16 6 25 15 25 9 0 15 -9 15 -25z m785 15 c-3 -5 -11 -10 -16 -10 -6 0 -7 5
-4 10 3 6 11 10 16 10 6 0 7 -4 4 -10z m-335 -10 c12 -8 11 -10 -7 -10 -13 0
-23 5 -23 10 0 13 11 13 30 0z m1077 -32 c1 -24 -1 -35 -4 -25 -5 21 -33 52
-54 60 -8 3 2 6 22 6 35 1 35 0 36 -41z m-157 18 c-7 -7 -14 -6 -21 1 -9 9 -7
12 9 10 14 -1 18 -5 12 -11z m-735 -16 c-6 -10 -55 -9 -55 1 0 4 13 7 30 7 16
-1 27 -4 25 -8z m585 1 c0 -6 -4 -13 -10 -16 -5 -3 -10 1 -10 9 0 9 5 16 10
16 6 0 10 -4 10 -9z m-294 -28 c-7 -7 -26 7 -26 19 0 6 6 6 15 -2 9 -7 13 -15
11 -17z m-940 -20 c-7 -7 -26 7 -26 19 0 6 6 6 15 -2 9 -7 13 -15 11 -17z
m1261 21 c-3 -3 -12 -4 -19 -1 -8 3 -5 6 6 6 11 1 17 -2 13 -5z m-1104 -27 c3
-8 -1 -14 -9 -14 -8 0 -14 6 -14 14 0 7 4 13 9 13 5 0 11 -6 14 -13z m4339 -9
c-9 -9 -15 -9 -24 0 -9 9 -7 12 12 12 19 0 21 -3 12 -12z m-2335 -30 c-3 -7
-5 -2 -5 12 0 14 2 19 5 13 2 -7 2 -19 0 -25z m-5351 11 c3 -6 2 -15 -3 -20
-14 -14 -43 0 -36 17 6 17 29 19 39 3z m-66 -53 c0 -3 -4 -8 -10 -11 -5 -3
-10 -1 -10 4 0 6 5 11 10 11 6 0 10 -2 10 -4z m5010 -16 c0 -22 -20 -26 -38
-8 -19 19 -14 28 13 28 18 0 25 -5 25 -20z m1420 10 c0 -13 -11 -13 -30 0 -12
8 -11 10 8 10 12 0 22 -4 22 -10z m-350 -30 c0 -5 -2 -10 -4 -10 -3 0 -8 5
-11 10 -3 6 -1 10 4 10 6 0 11 -4 11 -10z m-604 -27 c-3 -8 -6 -17 -6 -19 0
-2 -11 -4 -25 -4 -16 0 -25 6 -25 15 0 8 7 15 15 15 8 0 15 4 15 10 0 5 7 7
16 3 8 -3 13 -12 10 -20z m221 10 c3 -7 -3 -9 -16 -6 -12 3 -21 10 -21 15 0
13 32 6 37 -9z m-2447 -32 c0 -3 -4 -13 -9 -21 -6 -8 -7 -19 -3 -25 12 -18 8
-55 -5 -55 -7 0 -13 -8 -13 -17 -1 -17 -1 -17 -14 0 -8 10 -16 14 -18 10 -3
-4 -4 -3 -2 4 1 6 -2 27 -8 47 -9 29 -8 39 6 60 14 23 19 24 41 14 14 -6 25
-14 25 -17z m2109 -26 c0 -5 -4 -3 -9 5 -5 8 -9 22 -9 30 0 16 17 -16 18 -35z
m-5504 6 c-3 -6 -14 -11 -23 -11 -15 1 -15 2 2 15 21 16 32 13 21 -4z m8125
10 c0 -6 -4 -13 -10 -16 -5 -3 -10 1 -10 9 0 9 5 16 10 16 6 0 10 -4 10 -9z
m-1990 -11 c0 -5 -7 -10 -15 -10 -8 0 -15 5 -15 10 0 6 7 10 15 10 8 0 15 -4
15 -10z m1390 4 c0 -1 -7 -10 -16 -18 -22 -22 -37 -21 -25 2 8 15 41 28 41 16z
m-989 -14 c5 0 9 -5 9 -11 0 -6 -8 -9 -17 -7 -10 2 -23 -5 -30 -17 -12 -19
-12 -19 -9 5 3 14 5 29 5 34 1 4 8 5 17 2 9 -3 20 -6 25 -6z m-1711 -25 c0 -2
-13 -11 -30 -20 -16 -9 -30 -12 -30 -7 0 5 10 14 23 20 25 12 37 14 37 7z
m920 -5 c0 -5 -5 -10 -11 -10 -5 0 -7 5 -4 10 3 6 8 10 11 10 2 0 4 -4 4 -10z
m-4945 -30 c3 -5 -1 -10 -10 -10 -9 0 -13 5 -10 10 3 6 8 10 10 10 2 0 7 -4
10 -10z m5450 -40 c-8 -24 -25 -17 -20 8 2 9 4 24 5 32 0 12 3 11 11 -3 6 -9
7 -26 4 -37z m310 39 c11 -17 2 -18 -19 -3 -17 12 -17 14 -4 14 9 0 20 -5 23
-11z m1327 -11 c-7 -7 -12 -8 -12 -2 0 14 12 26 19 19 2 -3 -1 -11 -7 -17z
m-1223 -16 c-14 -5 -39 6 -39 17 0 5 11 4 25 -2 13 -7 20 -14 14 -15z m-6877
-6 c14 4 18 2 14 -5 -4 -6 -26 -16 -49 -22 -45 -11 -67 -40 -67 -88 0 -35 -9
-22 -15 25 -4 21 -8 46 -11 55 -2 8 3 24 11 35 14 17 17 17 27 3 10 -14 13
-14 31 4 18 18 20 18 29 3 6 -11 16 -15 30 -10z m3529 -18 c6 -9 0 -14 -20
-16 -16 -2 -41 -14 -56 -28 -15 -14 -25 -19 -22 -12 2 7 0 21 -5 31 -6 11 -5
17 3 17 8 0 8 4 -1 15 -11 13 -6 14 40 11 29 -3 57 -11 61 -18z m1139 17 c0
-2 -9 -9 -20 -15 -16 -9 -20 -8 -20 5 0 8 9 15 20 15 11 0 20 -2 20 -5z m100
-25 c0 -5 -7 -7 -15 -4 -8 4 -15 8 -15 10 0 2 7 4 15 4 8 0 15 -4 15 -10z
m789 -13 c12 -15 12 -17 -3 -11 -9 3 -16 13 -16 22 0 8 1 13 3 11 1 -2 9 -12
16 -22z m-4189 -17 c0 -5 -2 -10 -4 -10 -3 0 -8 5 -11 10 -3 6 -1 10 4 10 6 0
11 -4 11 -10z m4620 -1 c0 -6 9 -8 22 -3 20 6 21 5 9 -10 -18 -22 -38 -20 -44
4 -3 11 -1 20 4 20 5 0 9 -5 9 -11z m-2402 -24 c-3 -3 -9 2 -12 12 -6 14 -5
15 5 6 7 -7 10 -15 7 -18z m707 -5 c3 -5 1 -10 -4 -10 -6 0 -11 5 -11 10 0 6
2 10 4 10 3 0 8 -4 11 -10z m3737 -20 c-8 -21 -9 -22 -16 -5 -4 11 -2 22 6 26
17 11 20 6 10 -21z m-3192 -1 c0 6 7 11 16 11 13 0 14 -3 4 -15 -10 -12 -26
-14 -58 -6 -2 1 0 6 3 11 5 8 11 7 21 -1 10 -8 14 -8 14 0z m3215 -9 c3 -5 1
-10 -4 -10 -6 0 -11 5 -11 10 0 6 2 10 4 10 3 0 8 -4 11 -10z m-5508 -16 c-3
-3 -12 -4 -19 -1 -8 3 -5 6 6 6 11 1 17 -2 13 -5z m3883 2 c0 -11 -19 -15 -25
-6 -3 5 1 10 9 10 9 0 16 -2 16 -4z m-2930 -21 c4 3 25 -2 46 -10 30 -12 33
-14 12 -12 -20 3 -28 0 -28 -11 0 -12 -5 -11 -23 6 -13 12 -27 19 -30 15 -4
-3 -7 -2 -7 4 0 15 14 26 18 14 2 -6 7 -9 12 -6z m-3638 -50 c-3 -5 -7 -4 -10
3 -2 7 -11 12 -19 12 -14 0 -13 3 3 21 l19 21 6 -24 c3 -12 3 -27 1 -33z
m1748 41 c0 -11 -19 -15 -25 -6 -3 5 1 10 9 10 9 0 16 -2 16 -4z m375 -16 c-3
-5 -12 -10 -18 -10 -7 0 -6 4 3 10 19 12 23 12 15 0z m615 -10 c0 -5 -2 -10
-4 -10 -3 0 -8 5 -11 10 -3 6 -1 10 4 10 6 0 11 -4 11 -10z m837 -6 c-3 -3
-12 -4 -19 -1 -8 3 -5 6 6 6 11 1 17 -2 13 -5z m1730 -10 c-3 -3 -12 -4 -19
-1 -8 3 -5 6 6 6 11 1 17 -2 13 -5z m1690 -16 c-3 -8 -6 -5 -6 6 -1 11 2 17 5
13 3 -3 4 -12 1 -19z m738 12 c-3 -5 -11 -10 -16 -10 -6 0 -7 5 -4 10 3 6 11
10 16 10 6 0 7 -4 4 -10z m-8428 -6 c-3 -3 -12 -4 -19 -1 -8 3 -5 6 6 6 11 1
17 -2 13 -5z m637 -9 c-4 -8 -11 -15 -16 -15 -6 0 -8 -6 -5 -14 3 -8 -2 -17
-11 -21 -13 -5 -14 -8 -3 -14 11 -7 9 -11 -9 -21 -12 -6 -24 -9 -28 -6 -3 3
-1 6 4 6 6 0 16 17 24 38 7 20 20 42 29 49 21 16 21 16 15 -2z m4051 5 c-9
-14 8 -13 23 2 9 9 12 9 12 1 0 -14 -36 -27 -50 -18 -12 7 -4 25 11 25 6 0 7
-4 4 -10z m2936 -4 c-6 -7 -8 -21 -5 -31 7 -16 6 -16 -14 1 l-21 18 22 12 c30
16 31 16 18 0z m115 -11 c17 -16 14 -18 -10 -9 -9 3 -16 10 -16 15 0 13 9 11
26 -6z m388 -10 c-4 -8 -12 -15 -20 -15 -20 0 -17 18 4 23 9 3 18 5 19 6 1 0
0 -6 -3 -14z m-5721 -15 c-7 -27 -23 -36 -34 -19 -6 9 -3 18 8 27 24 17 32 15
26 -8z m-1517 -12 c10 -12 15 -19 9 -16 -5 3 -18 8 -28 11 -10 4 -15 11 -12
17 8 13 9 13 31 -12z m1359 5 c0 -20 14 -26 29 -14 19 16 43 4 27 -12 -22 -22
-47 -16 -65 15 -14 22 -15 29 -5 26 8 -3 14 -10 14 -15z m-2175 -3 c0 -5 -2
-10 -4 -10 -3 0 -8 5 -11 10 -3 6 -1 10 4 10 6 0 11 -4 11 -10z m717 4 c-3 -3
-12 -4 -19 -1 -8 3 -5 6 6 6 11 1 17 -2 13 -5z m1148 -3 c3 -5 1 -12 -5 -16
-5 -3 -10 1 -10 9 0 18 6 21 15 7z m155 -34 c0 -4 -9 -3 -20 3 -11 6 -20 15
-20 20 0 6 9 5 20 -2 11 -7 20 -16 20 -21z m-60 7 c0 -13 -3 -14 -13 -5 -8 6
-17 8 -20 4 -4 -3 -7 -1 -7 5 0 7 9 12 20 12 12 0 20 -7 20 -16z m107 10 c-3
-3 -12 -4 -19 -1 -8 3 -5 6 6 6 11 1 17 -2 13 -5z m33 -4 c0 -5 -4 -10 -10
-10 -5 0 -10 5 -10 10 0 6 5 10 10 10 6 0 10 -4 10 -10z m4297 -12 c-1 -18 3
-22 18 -20 16 2 17 1 5 -7 -8 -6 -23 -11 -32 -11 -15 0 -15 4 -7 30 13 36 20
39 16 8z m-4612 -8 c3 -5 1 -10 -4 -10 -6 0 -11 5 -11 10 0 6 2 10 4 10 3 0 8
-4 11 -10z m7332 -12 c-3 -8 -6 -5 -6 6 -1 11 2 17 5 13 3 -3 4 -12 1 -19z
m-7509 -13 c-3 -3 -9 2 -12 12 -6 14 -5 15 5 6 7 -7 10 -15 7 -18z m3860 0
c-3 -3 -9 2 -12 12 -6 14 -5 15 5 6 7 -7 10 -15 7 -18z m2522 15 c0 -5 -4 -10
-10 -10 -5 0 -10 5 -10 10 0 6 5 10 10 10 6 0 10 -4 10 -10z m-7370 -29 c-7
-13 -7 -21 -1 -21 6 0 8 -12 5 -29 -5 -22 -2 -29 14 -33 31 -8 49 7 33 26 -14
17 -11 19 13 10 8 -3 12 -12 10 -19 -7 -17 -84 -68 -91 -61 -3 3 2 8 11 12 12
5 14 10 6 20 -16 18 -21 84 -8 107 5 10 12 16 15 14 2 -3 0 -15 -7 -26z m170
-6 c0 -8 -4 -15 -10 -15 -5 0 -10 7 -10 15 0 8 5 15 10 15 6 0 10 -7 10 -15z
m3565 5 c7 -12 -2 -12 -30 0 -19 8 -19 9 2 9 12 1 25 -3 28 -9z m905 -6 c0 -8
-19 -13 -24 -6 -3 5 1 9 9 9 8 0 15 -2 15 -3z m2724 -9 c-6 -14 -64 -49 -64
-39 0 18 23 42 34 38 8 -3 17 -1 21 5 9 16 15 13 9 -4z m-7244 -15 c0 -5 -4
-10 -10 -10 -5 0 -10 5 -10 10 0 6 5 10 10 10 6 0 10 -4 10 -10z m4405 0 c-3
-5 -13 -10 -21 -10 -8 0 -14 5 -14 10 0 6 9 10 21 10 11 0 17 -4 14 -10z m498
-19 c-4 -3 -11 -10 -15 -15 -5 -5 -8 0 -8 12 0 15 4 20 16 15 9 -3 12 -9 7
-12z m-4903 -5 c0 -3 -4 -8 -10 -11 -5 -3 -10 -1 -10 4 0 6 5 11 10 11 6 0 10
-2 10 -4z m781 -23 c-12 -20 -14 -14 -5 12 4 9 9 14 11 11 3 -2 0 -13 -6 -23z
m3799 17 c0 -5 -4 -10 -10 -10 -5 0 -10 5 -10 10 0 6 5 10 10 10 6 0 10 -4 10
-10z m60 -17 c0 -12 -2 -12 -15 1 -8 8 -15 17 -15 20 0 3 7 3 15 0 8 -4 15
-13 15 -21z m1315 -4 c8 -25 3 -31 -27 -34 -13 -2 -31 -6 -40 -10 -11 -4 -18
-3 -18 4 0 14 40 30 58 24 15 -6 16 9 0 25 -9 9 -8 12 4 12 9 0 20 -9 23 -21z
m96 11 c10 -6 19 -17 19 -25 0 -8 7 -15 15 -15 8 0 15 -4 15 -10 0 -15 -29 0
-41 21 -5 11 -14 17 -18 14 -5 -3 -11 2 -15 10 -6 18 -1 19 25 5z m-1501 -4
c0 -2 -7 -7 -16 -10 -8 -3 -12 -2 -9 4 6 10 25 14 25 6z m-4780 -26 c0 -5 -5
-10 -11 -10 -5 0 -7 5 -4 10 3 6 8 10 11 10 2 0 4 -4 4 -10z m8100 -48 c0 -11
-8 -18 -20 -19 -22 -2 -23 -1 -14 21 8 22 34 20 34 -2z m250 8 c0 -5 -2 -10
-4 -10 -3 0 -8 5 -11 10 -3 6 -1 10 4 10 6 0 11 -4 11 -10z m-25 -10 c3 -5 1
-10 -4 -10 -6 0 -11 5 -11 10 0 6 2 10 4 10 3 0 8 -4 11 -10z m-1005 -10 c0
-5 -4 -10 -10 -10 -5 0 -10 5 -10 10 0 6 5 10 10 10 6 0 10 -4 10 -10z m-7167
-17 c-7 -2 -21 -2 -30 0 -10 3 -4 5 12 5 17 0 24 -2 18 -5z m7166 -60 c0 -16
-3 -22 -6 -13 -3 8 -10 21 -16 28 -7 8 -5 12 7 12 11 0 16 -8 15 -27z m1391
-27 c0 -3 -4 -8 -10 -11 -5 -3 -10 -1 -10 4 0 6 5 11 10 11 6 0 10 -2 10 -4z"/>
<path d="M6326 1283 c-7 -7 13 -33 25 -33 5 0 9 6 9 14 0 15 -24 28 -34 19z"/>
<path d="M1910 650 c0 -5 5 -10 11 -10 5 0 7 5 4 10 -3 6 -8 10 -11 10 -2 0
-4 -4 -4 -10z"/>
<path d="M7248 6125 c6 -34 22 -42 29 -16 3 12 10 21 15 21 5 0 6 5 3 10 -3 6
-17 10 -29 10 -19 0 -22 -4 -18 -25z"/>
<path d="M7295 6100 c-3 -5 -1 -10 4 -10 6 0 11 5 11 10 0 6 -2 10 -4 10 -3 0
-8 -4 -11 -10z"/>
<path d="M8170 3589 c0 -5 5 -7 10 -4 6 3 10 8 10 11 0 2 -4 4 -10 4 -5 0 -10
-5 -10 -11z"/>
<path d="M3050 3329 c0 -5 5 -7 10 -4 6 3 10 8 10 11 0 2 -4 4 -10 4 -5 0 -10
-5 -10 -11z"/>
<path d="M8545 3130 c-14 -16 -16 -23 -7 -32 18 -18 48 14 35 36 -8 15 -11 15
-28 -4z"/>
<path d="M8868 2953 c7 -3 16 -2 19 1 4 3 -2 6 -13 5 -11 0 -14 -3 -6 -6z"/>
<path d="M2033 2873 c1 -24 -32 -73 -49 -73 -16 0 -58 -39 -67 -62 -13 -36 31
-18 84 35 68 65 81 88 63 105 -19 17 -33 15 -31 -5z"/>
<path d="M1920 2825 c-7 -9 -11 -18 -8 -20 3 -3 11 1 18 10 7 9 11 18 8 20 -3
3 -11 -1 -18 -10z"/>
<path d="M1740 1013 c-4 -22 -7 -33 -10 -35 -6 -6 -8 -148 -3 -200 6 -65 23
-76 40 -25 13 35 12 115 0 135 -5 6 -12 40 -16 75 -5 34 -10 56 -11 50z"/>
<path d="M1410 700 l-35 -7 43 -2 c23 0 42 4 42 9 0 6 -3 9 -7 9 -5 -1 -24 -5
-43 -9z"/>
<path d="M10510 310 c0 -5 5 -10 11 -10 5 0 7 5 4 10 -3 6 -8 10 -11 10 -2 0
-4 -4 -4 -10z"/>
<path d="M10390 155 c0 -3 9 -16 21 -28 l21 -22 -13 28 c-11 23 -29 37 -29 22z"/>
<path d="M10636 43 c-10 -10 -7 -43 3 -43 6 0 13 5 17 11 5 8 9 8 14 -1 5 -9
9 -8 13 3 6 15 -36 41 -47 30z"/>
<path d="M10695 10 c-3 -5 -1 -10 4 -10 6 0 11 5 11 10 0 6 -2 10 -4 10 -3 0
-8 -4 -11 -10z"/>
</g>
</svg>
